<?xml version="1.0" encoding="UTF-8" standalone="no"?><!DOCTYPE svg PUBLIC "-//W3C//DTD SVG 1.1//EN" "http://www.w3.org/Graphics/SVG/1.1/DTD/svg11.dtd"><svg width="100%" height="100%" viewBox="0 0 3662 3662" version="1.1" xmlns="http://www.w3.org/2000/svg" xmlns:xlink="http://www.w3.org/1999/xlink" xml:space="preserve" style="fill-rule:evenodd;clip-rule:evenodd;stroke-linecap:round;stroke-linejoin:round;stroke-miterlimit:1.41421;"><g id="All-One"><path d="M1078.67,1830.71c0,0 94.457,-67.292 143.256,-71.619c147.044,-91.89 195.27,-3.924 195.27,-3.924c0,0 6.456,30.461 25.645,75.543c54.865,128.899 71.144,262.777 80.979,447.066c4.071,76.288 -33.449,149.17 -30.359,178.339" style="fill:none;stroke-width:16.67px;stroke:#000;"/><path d="M1496.6,2447.97l-1.519,35.386l-1.622,37.771l512.077,50.941c0,0 0.672,-82.233 -0.984,-167.345" style="fill:none;stroke-width:16.67px;stroke:#000;"/><path d="M2005.54,2404.73c1.264,-20.603 -2.747,-166.603 0,-180.052c18.024,-88.235 95.163,-360.043 110.254,-507.467c105.596,-72.212 177.21,0 177.21,0l193.248,95.628" style="fill:none;stroke-width:16.67px;stroke:#000;"/><path d="M2140.13,1453.97c-44.086,13.205 -150.469,-42.73 -167.214,-91.641c-16.746,-48.911 -54.225,-160.658 -54.225,-160.658" style="fill:none;stroke-width:16.67px;stroke:#000;"/><path d="M2247.26,1491.19c-26.317,-38.825 -107.133,-37.218 -107.133,-37.218" style="fill:none;stroke-width:14.58px;stroke:#000;"/><path d="M1677.75,1191.73c0,0 10.488,70.715 -26.397,118.682l-36.884,47.968c0,0 -67.768,53.658 -95.829,56.884c-28.217,13.28 -22.819,0.351 -56.682,21.063c-15.623,-1.219 -70.885,17.648 -70.885,17.648" style="fill:none;stroke-width:16.67px;stroke:#000;"/><path id="Head" d="M1951.03,1142.29c-24.494,38.722 -50.775,68.045 -63.781,88.415c-31.845,28.877 -54.904,55.298 -94.641,55.298c-45.182,0 -55.997,-29.182 -90.473,-65.75" style="fill:none;stroke-width:16.67px;stroke:#000;"/><path id="Head1" d="M1702.14,1220.25c-23.914,-25.366 -45.766,-38.473 -67.753,-74.623" style="fill:none;stroke-width:16.67px;stroke:#000;"/><path id="Head2" d="M1583.8,1009.14c-2.623,-15.159 -4.058,-30.787 -4.058,-46.852c0,-68.711 0.634,-145.538 24.68,-197.967c38.479,-83.898 115.883,-125.746 188.184,-125.746c74.932,0 152.028,48.147 189.964,137.248c21.542,50.596 22.899,121.756 22.899,186.465c0.499,23.278 -1.809,34.615 -6.119,55.103" style="fill:none;stroke-width:16.67px;stroke:#000;"/><path d="M1691.59,841.457c0,0 49.972,-67.449 53.747,-101.089c3.776,-33.639 27.305,-101.792 27.305,-101.792c0,0 25.304,2.132 15.745,64.688c-9.559,62.557 -15.745,57.367 -15.745,57.367l-20.744,48.346l-20.114,54.32" style="fill:none;stroke-width:14.58px;stroke:#000;"/><path d="M1890.73,841.457c0,0 -30.394,-67.449 -34.17,-101.089c-3.775,-33.639 -27.305,-101.792 -27.305,-101.792c0,0 -25.304,2.132 -15.745,64.688c9.559,62.557 15.745,57.367 15.745,57.367l1.011,48.346l15.484,54.32" style="fill:none;stroke-width:14.58px;stroke:#000;"/><path d="M1077.48,1825.72c-23.077,13.575 -61.846,12.651 -61.846,12.651l-82.113,-32.212l-30.72,-70.949l15.562,-71.352c0,0 599.165,-504.249 625.487,-563.256c26.323,-59.007 1.215,-44.577 15.893,-50.156c14.679,-5.578 84.85,-180.493 84.85,-180.493l50.615,-28.493l47.667,32.891l0,101.449c0,0 -52.538,18.715 -47.667,-53.196c4.871,-71.91 -20.892,60.492 -20.115,67.329c0.778,6.837 43.92,-2.517 43.92,-2.517l20.101,-37.556c0,0 42.082,75.671 3.761,93.573c-38.32,17.901 -83.421,57.904 -83.421,57.904c0,0 -292.135,367.456 -451.628,568.02" style="fill:none;stroke-width:14.58px;stroke:#000;"/><path d="M2488.58,1814.21c16.268,25.544 74.399,24.159 74.399,24.159l82.112,-32.212l30.72,-70.949l-15.561,-71.352c0,0 -599.166,-504.249 -625.488,-563.256c-26.322,-59.007 -1.214,-44.577 -15.893,-50.156c-14.678,-5.578 -84.85,-180.493 -84.85,-180.493l-50.615,-28.493l-47.667,32.891l0,101.449c0,0 52.539,18.715 47.667,-53.196c-4.871,-71.91 20.893,60.492 20.115,67.329c-0.778,6.837 -43.92,-2.517 -43.92,-2.517l-28.893,-46.885l0,-20.394c0,0 -33.29,105.394 5.031,123.296c38.321,17.901 83.421,57.904 83.421,57.904c0,0 331.764,392.175 483.824,583.779" style="fill:none;stroke-width:14.58px;stroke:#000;"/><path d="M1885.35,1026.16l33.342,-37.556" style="fill:none;stroke-width:14.58px;stroke:#000;"/><path d="M1670.13,988.601l19.966,37.556" style="fill:none;stroke-width:14.58px;stroke:#000;"/><text x="1270.5px" y="441.966px" style="font-family:'CourierNewPSMT', 'Courier New', monospace;font-size:200px;fill:#000;">All One</text><text x="1338.92px" y="2874.46px" style="font-family:'CourierNewPSMT', 'Courier New', monospace;font-size:200px;fill:#000;">All One</text></g></svg>