<?xml version="1.0" encoding="UTF-8" standalone="no"?><!DOCTYPE svg PUBLIC "-//W3C//DTD SVG 1.1//EN" "http://www.w3.org/Graphics/SVG/1.1/DTD/svg11.dtd"><svg width="100%" height="100%" viewBox="0 0 15259 15259" version="1.1" xmlns="http://www.w3.org/2000/svg" xmlns:xlink="http://www.w3.org/1999/xlink" xml:space="preserve" style="fill-rule:evenodd;clip-rule:evenodd;stroke-linecap:round;stroke-linejoin:round;stroke-miterlimit:1.41421;"><g id="All-One"><path d="M4494.46,7627.96c0,0 393.571,-280.383 596.9,-298.412c612.684,-382.875 813.625,-16.35 813.625,-16.35c0,0 26.9,126.921 106.855,314.762c228.604,537.08 296.433,1094.9 337.412,1862.78c16.963,317.867 -139.371,621.542 -126.496,743.079" style="fill:none;stroke-width:69.46px;stroke:#000;"/><path d="M6235.83,10199.9l-6.329,147.442l-6.758,157.379l2133.65,212.254c0,0 2.8,-342.638 -4.1,-697.271" style="fill:none;stroke-width:69.46px;stroke:#000;"/><path d="M8356.42,10019.7c5.266,-85.845 -11.446,-694.179 0,-750.216c75.1,-367.646 396.512,-1500.18 459.391,-2114.45c439.984,-300.884 738.375,0 738.375,0l805.2,398.45" style="fill:none;stroke-width:69.46px;stroke:#000;"/><path d="M8917.21,6058.21c-183.691,55.021 -626.954,-178.041 -696.725,-381.837c-69.775,-203.796 -225.937,-669.409 -225.937,-669.409" style="fill:none;stroke-width:69.46px;stroke:#000;"/><path d="M9363.58,6213.29c-109.654,-161.771 -446.387,-155.075 -446.387,-155.075" style="fill:none;stroke-width:60.75px;stroke:#000;"/><path d="M6990.62,4965.54c0,0 43.7,294.645 -109.987,494.508l-153.684,199.867c0,0 -282.366,223.575 -399.287,237.016c-117.571,55.334 -95.079,1.463 -236.175,87.763c-65.096,-5.079 -295.354,73.533 -295.354,73.533" style="fill:none;stroke-width:69.46px;stroke:#000;"/><path id="Head" d="M8129.29,4759.54c-102.059,161.341 -211.563,283.521 -265.755,368.395c-132.687,120.321 -228.766,230.409 -394.337,230.409c-188.258,0 -233.321,-121.592 -376.971,-273.958" style="fill:none;stroke-width:69.46px;stroke:#000;"/><path id="Head1" d="M7092.25,5084.38c-99.642,-105.692 -190.692,-160.304 -282.304,-310.929" style="fill:none;stroke-width:69.46px;stroke:#000;"/><path id="Head2" d="M6599.17,4204.75c-10.93,-63.162 -16.909,-128.279 -16.909,-195.217c0,-286.295 2.642,-606.408 102.834,-824.862c160.329,-349.575 482.846,-523.942 784.1,-523.942c312.216,0 633.45,200.613 791.516,571.867c89.759,210.817 95.413,507.317 95.413,776.937c2.079,96.992 -7.538,144.23 -25.496,229.596" style="fill:none;stroke-width:69.46px;stroke:#000;"/><path d="M7048.29,3506.07c0,0 208.216,-281.038 223.945,-421.204c15.734,-140.163 113.771,-424.134 113.771,-424.134c0,0 105.434,8.884 65.605,269.534c-39.83,260.654 -65.605,239.029 -65.605,239.029l-86.433,201.441l-83.808,226.334" style="fill:none;stroke-width:60.75px;stroke:#000;"/><path d="M7878.04,3506.07c0,0 -126.642,-281.038 -142.375,-421.204c-15.73,-140.163 -113.771,-424.134 -113.771,-424.134c0,0 -105.434,8.884 -65.604,269.534c39.829,260.654 65.604,239.029 65.604,239.029l4.212,201.441l64.517,226.334" style="fill:none;stroke-width:60.75px;stroke:#000;"/><path d="M4489.5,7607.17c-96.154,56.562 -257.692,52.712 -257.692,52.712l-342.137,-134.216l-128,-295.621l64.842,-297.3c-0.001,0 2496.52,-2101.04 2606.2,-2346.9c109.68,-245.863 5.063,-185.738 66.221,-208.984c61.163,-23.241 353.542,-752.054 353.542,-752.054l210.896,-118.721l198.612,137.046l0,422.704c0,0 -218.908,77.979 -198.612,-221.65c20.296,-299.625 -87.05,252.05 -83.813,280.538c3.242,28.487 183,-10.488 183,-10.488l83.754,-156.483c0,0 175.342,315.296 15.671,389.887c-159.666,74.588 -347.587,241.267 -347.587,241.267c0,0 -1217.23,1531.07 -1881.78,2366.75" style="fill:none;stroke-width:60.75px;stroke:#000;"/><path d="M10369.1,7559.21c67.784,106.434 309.996,100.663 309.996,100.663l342.133,-134.217l128.001,-295.621l-64.838,-297.3c0,0 -2496.53,-2101.04 -2606.2,-2346.9c-109.675,-245.862 -5.058,-185.737 -66.221,-208.983c-61.158,-23.242 -353.542,-752.054 -353.542,-752.054l-210.895,-118.721l-198.613,137.046l0,422.704c0,0 218.913,77.979 198.613,-221.65c-20.296,-299.625 87.054,252.05 83.812,280.537c-3.242,28.488 -183,-10.487 -183,-10.487l-120.387,-195.354l0,-84.975c0,0 -138.709,439.141 20.962,513.733c159.671,74.588 347.588,241.267 347.588,241.267c0,0 1382.35,1634.06 2015.93,2432.41" style="fill:none;stroke-width:60.75px;stroke:#000;"/><path d="M7855.62,4275.67l138.925,-156.484" style="fill:none;stroke-width:60.75px;stroke:#000;"/><path d="M6958.88,4119.17l83.192,156.483" style="fill:none;stroke-width:60.75px;stroke:#000;"/><text x="5293.75px" y="1841.53px" style="font-family:'CourierNewPSMT', 'Courier New', monospace;font-size:833.333px;fill:#000;">All One</text><text x="5578.83px" y="11976.9px" style="font-family:'CourierNewPSMT', 'Courier New', monospace;font-size:833.333px;fill:#000;">All One</text></g></svg>