<?xml version="1.0" encoding="UTF-8" standalone="no"?><!DOCTYPE svg PUBLIC "-//W3C//DTD SVG 1.1//EN" "http://www.w3.org/Graphics/SVG/1.1/DTD/svg11.dtd"><svg width="100%" height="100%" viewBox="0 0 3662 3662" version="1.1" xmlns="http://www.w3.org/2000/svg" xmlns:xlink="http://www.w3.org/1999/xlink" xml:space="preserve" style="fill-rule:evenodd;clip-rule:evenodd;stroke-linecap:round;stroke-linejoin:round;stroke-miterlimit:1.41421;"><g id="Heart"><path d="M1448.02,1889.66c12.537,-37.537 65.969,203.824 75.804,388.113c4.071,76.288 -33.449,149.17 -30.359,178.339" style="fill:none;stroke-width:16.67px;stroke:#000;"/><path d="M1496.6,2447.97l-1.519,35.386l-1.622,37.771l512.077,50.941c0,0 0.672,-82.233 -0.984,-167.345" style="fill:none;stroke-width:16.67px;stroke:#000;"/><path d="M2005.54,2404.73c1.264,-20.603 -2.747,-166.603 0,-180.052c18.024,-88.235 88.079,-289.224 71.333,-338.804" style="fill:none;stroke-width:16.67px;stroke:#000;"/><path d="M2113.89,1433.98c-44.086,13.205 -124.23,-22.736 -140.975,-71.647c-16.746,-48.911 -54.225,-160.658 -54.225,-160.658" style="fill:none;stroke-width:16.67px;stroke:#000;"/><path d="M1677.75,1191.73c0,0 10.488,70.715 -26.397,118.682l-36.884,47.968c0,0 -67.768,53.658 -95.829,56.884c-28.217,13.28 -22.819,0.351 -56.682,21.063c-15.623,-1.219 -56.43,17.654 -56.43,17.654" style="fill:none;stroke-width:16.67px;stroke:#000;"/><path d="M1191.26,1839.42c144.328,-39.579 340.796,-100.859 371.269,-148.34c49.025,-76.386 131.166,-148.826 140.004,-135.464c8.837,13.363 73.741,13.377 81.207,35.846c7.466,22.469 17.52,75.622 0,69.485c-17.52,-6.137 -39.027,-48.119 -48.94,-41.982c-9.912,6.136 -62.556,10.053 -62.556,10.053l-25.948,36.001c0,0 -31.278,39.694 -23.883,75.263c7.396,35.569 78.833,61.658 80.12,61.658c1.286,0 45.488,1.414 45.488,1.414c0,0 22.568,17.887 -1.838,24.024c-24.406,6.137 -32.225,64.999 -97.483,3.774c-81.151,-34.529 -114.083,3.308 -114.083,3.308c0,0 -108.117,61.569 -322.328,195.774c-214.211,134.206 -165.922,-19.146 -183.23,-7.536c-17.307,11.609 -9.888,-74.14 -9.888,-74.14" style="fill:none;stroke-width:14.58px;stroke:#000;"/><path d="M2113.89,1436.73c0,0 34.354,11.094 68.517,68.422c34.162,57.329 180.797,145.564 241.445,289.806" style="fill:none;stroke-width:14.58px;stroke:#000;"/><path d="M1405.53,1453.98c0,0 -83.629,34.793 -92.043,96.581c-8.414,61.788 -295.893,259.279 -295.893,390.318" style="fill:none;stroke-width:14.58px;stroke:#000;"/><path d="M2320.96,1798.08c-78.868,-11.006 -145.573,-26.627 -185.641,-26.135c-115.045,1.414 -110.583,-7.634 -112.51,-42.158c-1.927,-34.524 -37.441,-105.41 -37.441,-105.41l-63.044,-38.829l-67.59,-7.537l-33.49,13.83c0,0 -25.948,62.09 0,54.553c50.933,-54.695 96.046,-12.726 96.046,-12.726l30.982,35.704l3.62,60.415l-42.45,79.538l-88.198,0l27.856,59.748l29.672,0l106.596,-26.172c0,0 354.221,189.508 435.627,167.181c81.406,-22.328 46.522,-58.33 46.522,-58.33l8.795,-88.972l-55.317,-64.7" style="fill:none;stroke-width:14.58px;stroke:#000;"/><path id="Head" d="M1792.61,638.576c74.932,0 152.028,48.147 189.964,137.248c21.542,50.596 22.899,121.756 22.899,186.465c2.909,135.784 -89.663,223.686 -118.222,268.415c-31.845,28.877 -54.904,55.298 -94.641,55.298c-45.182,0 -55.997,-29.182 -90.473,-65.75c-55.169,-58.517 -122.391,-148.011 -122.391,-257.963c0,-68.711 0.634,-145.538 24.68,-197.967c38.479,-83.898 115.883,-125.746 188.184,-125.746Z" style="fill:none;stroke-width:16.67px;stroke:#000;"/><text x="1270.5px" y="441.966px" style="font-family:'CourierNewPSMT', 'Courier New', monospace;font-size:200px;fill:#000;">Love is</text><text x="1170.6px" y="2870.71px" style="font-family:'CourierNewPSMT', 'Courier New', monospace;font-size:200px;fill:#000;">Our command</text></g></svg>