<?xml version="1.0" encoding="UTF-8" standalone="no"?><!DOCTYPE svg PUBLIC "-//W3C//DTD SVG 1.1//EN" "http://www.w3.org/Graphics/SVG/1.1/DTD/svg11.dtd"><svg width="100%" height="100%" viewBox="0 0 3662 3662" version="1.1" xmlns="http://www.w3.org/2000/svg" xmlns:xlink="http://www.w3.org/1999/xlink" xml:space="preserve" style="fill-rule:evenodd;clip-rule:evenodd;stroke-linecap:round;stroke-linejoin:round;stroke-miterlimit:1.41421;"><g id="Sisterhood"><path d="M1496.6,2447.97l-1.519,35.386l-1.622,37.771l512.077,50.941c0,0 0.672,-82.233 -0.984,-167.345" style="fill:none;stroke-width:16.67px;stroke:#000;"/><path d="M2113.89,1433.98c-44.086,13.205 -124.23,-22.736 -140.975,-71.647c-16.746,-48.911 -54.225,-160.658 -54.225,-160.658" style="fill:none;stroke-width:16.67px;stroke:#000;"/><path id="Head" d="M1792.61,638.576c74.932,0 152.028,48.147 189.964,137.248c21.542,50.596 22.899,121.756 22.899,186.465c2.909,135.784 -89.663,223.686 -118.222,268.415c-31.845,28.877 -54.904,55.298 -94.641,55.298c-45.182,0 -55.997,-29.182 -90.473,-65.75c-55.169,-58.517 -122.391,-148.011 -122.391,-257.963c0,-68.711 0.634,-145.538 24.68,-197.967c38.479,-83.898 115.883,-125.746 188.184,-125.746Z" style="fill:none;stroke-width:16.67px;stroke:#000;"/><text x="1270.5px" y="441.966px" style="font-family:'CourierNewPSMT', 'Courier New', monospace;font-size:200px;fill:#000;">Sisterhood</text><text x="1470.65px" y="2887.44px" style="font-family:'CourierNewPSMT', 'Courier New', monospace;font-size:200px;fill:#000;">of Man</text><path d="M2005.54,2404.73c1.264,-20.603 -2.747,-166.603 0,-180.052c18.024,-88.235 57.156,-323.243 57.156,-323.243l9.048,-70.722c0,0 9.438,-67.419 42.145,-140.489c32.706,-73.07 174.031,-48.593 174.031,-48.593c0,0 240.676,10.842 315.653,12.005c44.764,0.694 88.815,10.291 134.213,-5.027c100.457,-7.153 442.986,-130.211 442.986,-130.211l150.786,-29.158c0,0 75.427,-45.078 99.582,-73.417c129.173,-89.476 45.348,-96.617 45.348,-96.617c0,0 -125.993,123.895 -188.171,91.797c-18.03,-9.307 48.975,-37.656 53.082,-50.749c4.966,-15.834 3.542,-41.048 3.542,-41.048l-58.179,47.962l-113.795,69.569l-508.668,63.585c0,0 -347.702,-25.829 -381.427,-63.585c-33.724,-37.756 -168.983,0 -168.983,0" style="fill:none;stroke-width:16.67px;stroke:#000;"/><path d="M1677.75,1191.73c0,0 10.488,70.715 -26.397,118.682l-36.884,47.968c0,0 -67.768,53.658 -95.829,56.884c-28.217,13.28 -22.819,0.351 -56.682,21.063c-15.623,-1.219 -88.73,-42.055 -200.742,17.654c-58.245,31.048 -293.707,-29.548 -398.402,0c-104.694,29.548 -488.158,-73.938 -488.158,-73.938l-30.468,-33.963l-105.151,-26.874l-12.62,0c0,0 -4.945,42.564 28.553,38.789c33.498,-3.776 61.231,40.653 61.231,40.653c0,0 -68.789,30.96 -148.318,-4.062c-45.093,-37.853 -91.111,-31.575 -91.111,-31.575c0,0 -10.795,19.001 41.254,58.879c164.019,48.467 72.69,41.035 168.021,60.043c30.731,3.843 88.609,-27.952 88.609,-27.952l431.703,148.559c0,0 107.325,49.908 148.346,33.718c41.021,-16.191 382.962,-20.782 426.389,41.006c28.271,40.224 53.477,23.901 90.03,206.8c0,0 42.863,209.426 52.698,393.715c4.071,76.288 -33.449,149.17 -30.359,178.339" style="fill:none;stroke-width:16.67px;stroke:#000;"/></g></svg>