<?xml version="1.0" encoding="UTF-8" standalone="no"?><!DOCTYPE svg PUBLIC "-//W3C//DTD SVG 1.1//EN" "http://www.w3.org/Graphics/SVG/1.1/DTD/svg11.dtd"><svg width="100%" height="100%" viewBox="0 0 3662 3662" version="1.1" xmlns="http://www.w3.org/2000/svg" xmlns:xlink="http://www.w3.org/1999/xlink" xml:space="preserve" style="fill-rule:evenodd;clip-rule:evenodd;stroke-linecap:round;stroke-linejoin:round;stroke-miterlimit:1.41421;"><g id="World"><path d="M1422.5,1783.89c16.985,-48.25 68.796,405.816 78.909,496.391" style="fill:none;stroke-width:16.67px;stroke:#000;"/><path d="M1496.6,2447.97l-1.519,35.386l-1.622,37.771l512.077,50.941c0,0 -5.93,-82.233 -7.586,-167.345" style="fill:none;stroke-width:16.67px;stroke:#000;"/><path d="M1999.62,2289.43c1.264,-18.537 3.174,-34.6 5.921,-46.7c18.024,-79.388 70.488,-462.764 53.743,-507.373" style="fill:none;stroke-width:16.67px;stroke:#000;"/><path d="M2059.99,1738.64c-16.745,-42.209 92.906,242.129 129.441,274.665c-119.404,116.933 -97.383,191.359 -183.183,271.27c-113.862,64.108 -64.866,-24.53 -135.316,9.078c-70.451,33.608 -67.524,23.342 -39.515,37.372l28.008,14.031l48.572,-7.54c0,0 -40.148,98.766 -139.187,117.739c-99.038,18.972 -45.675,24.625 -45.675,24.625l21.945,7.551l86.337,-2.004l42.155,-26.057l83.23,-41.149c0,0 64.819,-17.297 74.968,-44.192c10.149,-26.894 307.417,-299.349 307.417,-299.349c0,0 23.448,-82.829 5.875,-96.976c-17.573,-14.148 -101.637,-355.75 -147.469,-414.326c-15.812,-50.077 -20.203,-111.977 -82.996,-126.119" style="fill:none;stroke-width:16.67px;stroke:#000;"/><path d="M1401.53,1453.98c0,0 -65.318,44.807 -65.318,66.378c0,21.571 -282.469,362.613 -276.817,450.328c5.653,87.716 0,42.92 0,42.92c0,0 137.316,210.555 167.371,215.275c30.056,4.719 133.647,130.115 133.647,130.115c0,0 0.838,51.732 80.748,68.594c79.91,16.863 90.166,47.745 90.166,47.745c0,0 67.884,11.21 95.828,14.975c27.945,3.764 25.124,17.678 39.982,7.423c14.858,-10.255 12.747,-32.887 -4.942,-47.744c-17.69,-14.858 -177.521,-47.851 -156.66,-93.708c20.86,-45.857 97.95,-13.808 101.714,-11.093c3.765,2.715 13.204,-6.819 8.485,-16.852c-4.72,-10.032 -59.4,-50.565 -137.2,-47.628c-77.8,2.938 -48.911,1.05 -48.911,-15.695c0,-16.746 -68.117,-85.903 -89.572,-168.422c-21.454,-82.519 -61.881,-123.275 -72.37,-128.598c-10.488,-5.324 129.543,-143.807 148.399,-194.489" style="fill:none;stroke-width:16.67px;stroke:#000;"/><path d="M2113.89,1433.98c-44.086,13.205 -124.23,-22.736 -140.975,-71.647c-16.746,-48.911 -54.225,-160.658 -54.225,-160.658" style="fill:none;stroke-width:16.67px;stroke:#000;"/><path d="M1677.75,1191.73c0,0 10.488,70.715 -26.397,118.682l-36.884,47.968c0,0 -67.768,53.658 -95.829,56.884c-28.217,13.28 -22.819,0.351 -56.682,21.063c-15.623,-1.219 -56.43,17.654 -56.43,17.654" style="fill:none;stroke-width:16.67px;stroke:#000;"/><path id="Head" d="M1792.61,638.576c74.932,0 152.028,48.147 189.964,137.248c21.542,50.596 22.899,121.756 22.899,186.465c2.909,135.784 -89.663,223.686 -118.222,268.415c-31.845,28.877 -54.904,55.298 -94.641,55.298c-45.182,0 -55.997,-29.182 -90.473,-65.75c-55.169,-58.517 -122.391,-148.011 -122.391,-257.963c0,-68.711 0.634,-145.538 24.68,-197.967c38.479,-83.898 115.883,-125.746 188.184,-125.746Z" style="fill:none;stroke-width:16.67px;stroke:#000;"/><text x="1270.5px" y="441.966px" style="font-family:'CourierNewPSMT', 'Courier New', monospace;font-size:200px;fill:#000;">World is</text><text x="1110.59px" y="2804.93px" style="font-family:'CourierNewPSMT', 'Courier New', monospace;font-size:200px;fill:#000;">In our hands</text></g></svg>